/* XPM */
static char * close_inactive_xpm[] = {
"20 20 3 1",
" 	c None",
".	c #282A36",
"+	c #FF5555",
"....................",
"....................",
"....................",
"....................",
"....................",
".....++++++++++.....",
".....++++++++++.....",
".....++++++++++.....",
".....++++++++++.....",
".....++++++++++.....",
".....++++++++++.....",
".....++++++++++.....",
".....++++++++++.....",
".....++++++++++.....",
".....++++++++++.....",
"....................",
"....................",
"....................",
"....................",
"...................."};
