/* XPM */
static char * hide_active_xpm[] = {
"20 20 3 1",
" 	c None",
".	c #1E1F29",
"+	c #FFB86C",
"....................",
"....................",
"....................",
"....................",
"....................",
".....++++++++++.....",
".....++++++++++.....",
".....++++++++++.....",
".....++++++++++.....",
".....++++++++++.....",
".....++++++++++.....",
".....++++++++++.....",
".....++++++++++.....",
".....++++++++++.....",
".....++++++++++.....",
"....................",
"....................",
"....................",
"....................",
"...................."};
